<svg width="1276" height="192" viewBox="0 0 1276 192" fill="none" xmlns="http://www.w3.org/2000/svg">
<ellipse cx="431" cy="132.145" rx="56" ry="59.0407" fill="#CEE8FF"/>
<ellipse cx="878.5" cy="142.161" rx="42.5" ry="44.8077" fill="white"/>
<ellipse cx="1043.5" cy="117.912" rx="42.5" ry="44.8077" fill="#FCCA43"/>
<path d="M1275.5 100.378C1275.5 133.859 1249.76 161 1218 161C1186.24 161 1160.5 133.859 1160.5 100.378C1160.5 66.8972 1186.24 39.7557 1218 39.7557C1249.76 39.7557 1275.5 66.8972 1275.5 100.378Z" fill="#C4C4C4"/>
<ellipse rx="34.9965" ry="36.8517" transform="matrix(0.993582 0.113118 -0.101891 0.994796 740.527 95.7997)" fill="#C4C4C4"/>
<ellipse cx="394" cy="106.842" rx="68" ry="71.6923" fill="white"/>
<ellipse cx="145" cy="112.385" rx="75" ry="79.0724" fill="#CEE8FF"/>
<ellipse cx="64.5" cy="90.0023" rx="64.5" ry="68.0023" fill="#FCCA43"/>
<ellipse cx="610.5" cy="72.5769" rx="68.5" ry="72.2195" fill="white"/>
</svg>
