<svg id="visual" viewBox="0 0 1000 150" width="1000" height="150" xmlns="http://www.w3.org/2000/svg" xmlns:xlink="http://www.w3.org/1999/xlink" version="1.1"><rect x="0" y="0" width="1000" height="150" fill="#f8f9fa"></rect><path d="M0 77L23.8 80.8C47.7 84.7 95.3 92.3 143 95.3C190.7 98.3 238.3 96.7 286 92.2C333.7 87.7 381.3 80.3 428.8 76.5C476.3 72.7 523.7 72.3 571.2 72.8C618.7 73.3 666.3 74.7 714 79.2C761.7 83.7 809.3 91.3 857 93C904.7 94.7 952.3 90.3 976.2 88.2L1000 86L1000 0L976.2 0C952.3 0 904.7 0 857 0C809.3 0 761.7 0 714 0C666.3 0 618.7 0 571.2 0C523.7 0 476.3 0 428.8 0C381.3 0 333.7 0 286 0C238.3 0 190.7 0 143 0C95.3 0 47.7 0 23.8 0L0 0Z" fill="#4facf7"></path><path d="M0 88L23.8 86.5C47.7 85 95.3 82 143 78.2C190.7 74.3 238.3 69.7 286 72.7C333.7 75.7 381.3 86.3 428.8 92.2C476.3 98 523.7 99 571.2 95C618.7 91 666.3 82 714 77.8C761.7 73.7 809.3 74.3 857 76C904.7 77.7 952.3 80.3 976.2 81.7L1000 83L1000 0L976.2 0C952.3 0 904.7 0 857 0C809.3 0 761.7 0 714 0C666.3 0 618.7 0 571.2 0C523.7 0 476.3 0 428.8 0C381.3 0 333.7 0 286 0C238.3 0 190.7 0 143 0C95.3 0 47.7 0 23.8 0L0 0Z" fill="#4c91d4"></path><path d="M0 61L23.8 59.8C47.7 58.7 95.3 56.3 143 59.3C190.7 62.3 238.3 70.7 286 72.3C333.7 74 381.3 69 428.8 64.8C476.3 60.7 523.7 57.3 571.2 57.7C618.7 58 666.3 62 714 66C761.7 70 809.3 74 857 75C904.7 76 952.3 74 976.2 73L1000 72L1000 0L976.2 0C952.3 0 904.7 0 857 0C809.3 0 761.7 0 714 0C666.3 0 618.7 0 571.2 0C523.7 0 476.3 0 428.8 0C381.3 0 333.7 0 286 0C238.3 0 190.7 0 143 0C95.3 0 47.7 0 23.8 0L0 0Z" fill="#4677b1"></path><path d="M0 41L23.8 40.5C47.7 40 95.3 39 143 37.3C190.7 35.7 238.3 33.3 286 33.7C333.7 34 381.3 37 428.8 40C476.3 43 523.7 46 571.2 46.5C618.7 47 666.3 45 714 44C761.7 43 809.3 43 857 40.7C904.7 38.3 952.3 33.7 976.2 31.3L1000 29L1000 0L976.2 0C952.3 0 904.7 0 857 0C809.3 0 761.7 0 714 0C666.3 0 618.7 0 571.2 0C523.7 0 476.3 0 428.8 0C381.3 0 333.7 0 286 0C238.3 0 190.7 0 143 0C95.3 0 47.7 0 23.8 0L0 0Z" fill="#3d5e8f"></path><path d="M0 15L23.8 14.3C47.7 13.7 95.3 12.3 143 16.2C190.7 20 238.3 29 286 29.7C333.7 30.3 381.3 22.7 428.8 18.7C476.3 14.7 523.7 14.3 571.2 16.3C618.7 18.3 666.3 22.7 714 22.3C761.7 22 809.3 17 857 17.5C904.7 18 952.3 24 976.2 27L1000 30L1000 0L976.2 0C952.3 0 904.7 0 857 0C809.3 0 761.7 0 714 0C666.3 0 618.7 0 571.2 0C523.7 0 476.3 0 428.8 0C381.3 0 333.7 0 286 0C238.3 0 190.7 0 143 0C95.3 0 47.7 0 23.8 0L0 0Z" fill="#32476f"></path></svg>