<svg width="1200" height="167" viewBox="0 0 1200 167" fill="none" xmlns="http://www.w3.org/2000/svg">
<ellipse cx="1087.5" cy="69.2511" rx="42.5" ry="44.8077" fill="#CEE8FF"/>
<ellipse rx="34.9965" ry="36.8517" transform="matrix(0.993582 0.113118 -0.101891 0.994796 525.527 77.7137)" fill="#C4C4C4"/>
<ellipse rx="34.9965" ry="36.8517" transform="matrix(0.993582 0.113118 -0.101891 0.994796 1160.53 50.6186)" fill="#C4C4C4"/>
<ellipse rx="34.9965" ry="36.8517" transform="matrix(0.993582 0.113118 -0.101891 0.994796 185.527 73.4965)" fill="#C4C4C4"/>
<ellipse cx="788.5" cy="110.369" rx="53.5" ry="56.405" fill="#C4C4C4"/>
<ellipse cx="456.5" cy="66.0883" rx="53.5" ry="56.405" fill="#FCCA43"/>
<path d="M101 53.4367C101 82.8414 78.3904 106.679 50.5 106.679C22.6096 106.679 0 82.8414 0 53.4367C0 24.0319 22.6096 0.19458 50.5 0.19458C78.3904 0.19458 101 24.0319 101 53.4367Z" fill="#CEE8FF"/>
</svg>
