<svg width="1440" height="40" viewBox="0 0 1440 40" fill="none" xmlns="http://www.w3.org/2000/svg">
<rect width="1440" height="40" fill="#215E4A"/>
<path d="M30.28 27.1772C29.216 27.1772 28.22 26.9772 27.292 26.5772C26.364 26.1772 25.544 25.6252 24.832 24.9212C24.128 24.2172 23.576 23.4012 23.176 22.4732C22.776 21.5452 22.576 20.5492 22.576 19.4852C22.576 18.4212 22.776 17.4252 23.176 16.4972C23.576 15.5692 24.128 14.7532 24.832 14.0492C25.544 13.3372 26.364 12.7812 27.292 12.3812C28.22 11.9812 29.216 11.7812 30.28 11.7812C31.336 11.7812 32.328 11.9812 33.256 12.3812C34.192 12.7812 35.012 13.3372 35.716 14.0492C36.42 14.7532 36.972 15.5692 37.372 16.4972C37.772 17.4252 37.972 18.4212 37.972 19.4852C37.972 20.5492 37.772 21.5452 37.372 22.4732C36.972 23.4012 36.42 24.2172 35.716 24.9212C35.012 25.6252 34.192 26.1772 33.256 26.5772C32.328 26.9772 31.336 27.1772 30.28 27.1772ZM30.28 26.1812C31.208 26.1812 32.076 26.0092 32.884 25.6652C33.692 25.3132 34.4 24.8332 35.008 24.2252C35.624 23.6092 36.104 22.8972 36.448 22.0892C36.8 21.2732 36.976 20.4052 36.976 19.4852C36.976 18.5572 36.8 17.6892 36.448 16.8812C36.104 16.0732 35.624 15.3612 35.008 14.7452C34.4 14.1292 33.692 13.6492 32.884 13.3052C32.076 12.9532 31.208 12.7772 30.28 12.7772C29.36 12.7772 28.492 12.9532 27.676 13.3052C26.868 13.6492 26.156 14.1292 25.54 14.7452C24.924 15.3612 24.44 16.0732 24.088 16.8812C23.744 17.6892 23.572 18.5572 23.572 19.4852C23.572 20.4052 23.744 21.2732 24.088 22.0892C24.44 22.8972 24.924 23.6092 25.54 24.2252C26.156 24.8332 26.868 25.3132 27.676 25.6652C28.492 26.0092 29.36 26.1812 30.28 26.1812ZM30.244 24.3092C29.42 24.3092 28.708 24.1052 28.108 23.6972C27.516 23.2812 27.06 22.7052 26.74 21.9692C26.42 21.2332 26.26 20.3812 26.26 19.4132C26.26 18.3732 26.436 17.5012 26.788 16.7972C27.14 16.0932 27.616 15.5612 28.216 15.2012C28.816 14.8332 29.492 14.6492 30.244 14.6492C31.236 14.6492 32.032 14.8972 32.632 15.3932C33.24 15.8892 33.66 16.5372 33.892 17.3372L32.644 17.5892C32.452 17.0052 32.144 16.5412 31.72 16.1972C31.304 15.8532 30.812 15.6812 30.244 15.6812C29.756 15.6812 29.304 15.8212 28.888 16.1012C28.472 16.3812 28.136 16.8012 27.88 17.3612C27.632 17.9132 27.508 18.5972 27.508 19.4132C27.508 20.1492 27.608 20.8092 27.808 21.3932C28.008 21.9692 28.308 22.4252 28.708 22.7612C29.116 23.0892 29.628 23.2532 30.244 23.2532C30.98 23.2532 31.564 23.0572 31.996 22.6652C32.428 22.2652 32.644 21.7452 32.644 21.1052H33.904C33.904 22.1052 33.564 22.8892 32.884 23.4572C32.212 24.0252 31.332 24.3092 30.244 24.3092ZM45.7782 27.0332V24.8012C45.7782 23.9292 45.9182 23.2012 46.1982 22.6172C46.4862 22.0332 46.8862 21.5492 47.3982 21.1652C47.9182 20.7812 48.5302 20.4492 49.2342 20.1692L52.2102 18.9932C52.9782 18.6812 53.5542 18.2812 53.9382 17.7932C54.3222 17.3052 54.5142 16.6972 54.5142 15.9692C54.5142 15.2012 54.2462 14.5732 53.7102 14.0852C53.1822 13.5972 52.4422 13.3532 51.4902 13.3532C50.5462 13.3532 49.7702 13.5572 49.1622 13.9652C48.5622 14.3652 48.2182 14.9692 48.1302 15.7772H46.0422C46.0982 14.9052 46.3542 14.1652 46.8102 13.5572C47.2742 12.9492 47.9022 12.4892 48.6942 12.1772C49.4862 11.8572 50.4102 11.6972 51.4662 11.6972C52.4342 11.6972 53.3022 11.8852 54.0702 12.2612C54.8382 12.6372 55.4422 13.1572 55.8822 13.8212C56.3302 14.4772 56.5542 15.2332 56.5542 16.0892C56.5542 16.8652 56.4102 17.5412 56.1222 18.1172C55.8342 18.6932 55.4222 19.1892 54.8862 19.6052C54.3582 20.0212 53.7302 20.3772 53.0022 20.6732L49.9542 21.8972C49.1862 22.1932 48.6102 22.5492 48.2262 22.9652C47.8422 23.3812 47.6502 23.9212 47.6502 24.5852V25.3052H56.4102V27.0332H45.7782ZM65.2686 27.3212C64.0846 27.3212 63.0486 27.0332 62.1606 26.4572C61.2806 25.8812 60.5926 25.0132 60.0966 23.8532C59.6086 22.6932 59.3646 21.2412 59.3646 19.4972C59.3646 17.7532 59.6086 16.3052 60.0966 15.1532C60.5926 13.9932 61.2806 13.1292 62.1606 12.5612C63.0486 11.9852 64.0846 11.6972 65.2686 11.6972C66.4446 11.6972 67.4766 11.9852 68.3646 12.5612C69.2526 13.1292 69.9406 13.9932 70.4286 15.1532C70.9246 16.3052 71.1726 17.7532 71.1726 19.4972C71.1726 21.2412 70.9246 22.6932 70.4286 23.8532C69.9406 25.0132 69.2526 25.8812 68.3646 26.4572C67.4766 27.0332 66.4446 27.3212 65.2686 27.3212ZM65.2686 25.5932C66.5646 25.5932 67.5486 25.0652 68.2206 24.0092C68.8926 22.9452 69.2286 21.4412 69.2286 19.4972C69.2286 17.5532 68.8926 16.0532 68.2206 14.9972C67.5486 13.9332 66.5646 13.4012 65.2686 13.4012C63.9886 13.4012 63.0086 13.9332 62.3286 14.9972C61.6486 16.0532 61.3086 17.5532 61.3086 19.4972C61.3086 21.4412 61.6486 22.9452 62.3286 24.0092C63.0086 25.0652 63.9886 25.5932 65.2686 25.5932ZM73.9266 27.0332V24.8012C73.9266 23.9292 74.0666 23.2012 74.3466 22.6172C74.6346 22.0332 75.0346 21.5492 75.5466 21.1652C76.0666 20.7812 76.6786 20.4492 77.3826 20.1692L80.3586 18.9932C81.1266 18.6812 81.7026 18.2812 82.0866 17.7932C82.4706 17.3052 82.6626 16.6972 82.6626 15.9692C82.6626 15.2012 82.3946 14.5732 81.8586 14.0852C81.3306 13.5972 80.5906 13.3532 79.6386 13.3532C78.6946 13.3532 77.9186 13.5572 77.3106 13.9652C76.7106 14.3652 76.3666 14.9692 76.2786 15.7772H74.1906C74.2466 14.9052 74.5026 14.1652 74.9586 13.5572C75.4226 12.9492 76.0506 12.4892 76.8426 12.1772C77.6346 11.8572 78.5586 11.6972 79.6146 11.6972C80.5826 11.6972 81.4506 11.8852 82.2186 12.2612C82.9866 12.6372 83.5906 13.1572 84.0306 13.8212C84.4786 14.4772 84.7026 15.2332 84.7026 16.0892C84.7026 16.8652 84.5586 17.5412 84.2706 18.1172C83.9826 18.6932 83.5706 19.1892 83.0346 19.6052C82.5066 20.0212 81.8786 20.3772 81.1506 20.6732L78.1026 21.8972C77.3346 22.1932 76.7586 22.5492 76.3746 22.9652C75.9906 23.3812 75.7986 23.9212 75.7986 24.5852V25.3052H84.5586V27.0332H73.9266ZM87.8251 27.0332V24.8012C87.8251 23.9292 87.9651 23.2012 88.2451 22.6172C88.5331 22.0332 88.9331 21.5492 89.4451 21.1652C89.9651 20.7812 90.5771 20.4492 91.2811 20.1692L94.2571 18.9932C95.0251 18.6812 95.6011 18.2812 95.9851 17.7932C96.3691 17.3052 96.5611 16.6972 96.5611 15.9692C96.5611 15.2012 96.2931 14.5732 95.7571 14.0852C95.2291 13.5972 94.4891 13.3532 93.5371 13.3532C92.5931 13.3532 91.8171 13.5572 91.2091 13.9652C90.6091 14.3652 90.2651 14.9692 90.1771 15.7772H88.0891C88.1451 14.9052 88.4011 14.1652 88.8571 13.5572C89.3211 12.9492 89.9491 12.4892 90.7411 12.1772C91.5331 11.8572 92.4571 11.6972 93.5131 11.6972C94.4811 11.6972 95.3491 11.8852 96.1171 12.2612C96.8851 12.6372 97.4891 13.1572 97.9291 13.8212C98.3771 14.4772 98.6011 15.2332 98.6011 16.0892C98.6011 16.8652 98.4571 17.5412 98.1691 18.1172C97.8811 18.6932 97.4691 19.1892 96.9331 19.6052C96.4051 20.0212 95.7771 20.3772 95.0491 20.6732L92.0011 21.8972C91.2331 22.1932 90.6571 22.5492 90.2731 22.9652C89.8891 23.3812 89.6971 23.9212 89.6971 24.5852V25.3052H98.4571V27.0332H87.8251ZM113.563 27.3212C112.795 27.3212 112.099 27.1212 111.475 26.7212C110.859 26.3212 110.367 25.7372 109.999 24.9692C109.639 24.1932 109.459 23.2492 109.459 22.1372H110.179C110.179 22.8812 110.331 23.5172 110.635 24.0452C110.947 24.5652 111.347 24.9612 111.835 25.2332C112.323 25.5052 112.835 25.6412 113.371 25.6412C113.987 25.6412 114.551 25.4652 115.063 25.1132C115.575 24.7612 115.983 24.2572 116.287 23.6012C116.599 22.9452 116.755 22.1612 116.755 21.2492C116.755 20.3532 116.603 19.5852 116.299 18.9452C115.995 18.2972 115.583 17.8012 115.063 17.4572C114.551 17.1052 113.979 16.9292 113.347 16.9292C112.803 16.9292 112.287 17.0652 111.799 17.3372C111.319 17.6012 110.927 17.9932 110.623 18.5132C110.327 19.0332 110.179 19.6732 110.179 20.4332H109.459C109.459 19.3452 109.635 18.4172 109.987 17.6492C110.347 16.8812 110.843 16.2932 111.475 15.8852C112.107 15.4772 112.843 15.2732 113.683 15.2732C114.587 15.2732 115.415 15.5172 116.167 16.0052C116.927 16.4852 117.535 17.1732 117.991 18.0692C118.447 18.9652 118.675 20.0252 118.675 21.2492C118.675 22.4812 118.443 23.5532 117.979 24.4652C117.515 25.3692 116.895 26.0732 116.119 26.5772C115.343 27.0732 114.491 27.3212 113.563 27.3212ZM108.307 27.0332V10.6652H110.179V24.3452L109.627 27.0332H108.307ZM120.637 15.5612H122.725L126.469 25.4012H126.037L128.941 15.5612H130.861L126.541 29.3372C126.181 30.4892 125.701 31.3772 125.101 32.0012C124.501 32.6252 123.733 32.9372 122.797 32.9372C122.293 32.9372 121.813 32.8652 121.357 32.7212C120.909 32.5772 120.445 32.3692 119.965 32.0972V30.3692C120.389 30.7052 120.797 30.9452 121.189 31.0892C121.589 31.2332 122.005 31.3052 122.437 31.3052C122.917 31.3052 123.317 31.1532 123.637 30.8492C123.965 30.5452 124.237 30.1532 124.453 29.6732C124.669 29.2012 124.853 28.7052 125.005 28.1852L125.341 27.0332L120.637 15.5612ZM144.232 27.3212C143.224 27.3212 142.3 27.1412 141.46 26.7812C140.62 26.4132 139.944 25.8732 139.432 25.1612C138.92 24.4492 138.656 23.5692 138.64 22.5212H140.464C140.464 23.2252 140.636 23.8052 140.98 24.2612C141.324 24.7092 141.78 25.0452 142.348 25.2692C142.916 25.4852 143.536 25.5932 144.208 25.5932C144.936 25.5932 145.568 25.4772 146.104 25.2452C146.64 25.0132 147.052 24.7092 147.34 24.3332C147.636 23.9492 147.784 23.5292 147.784 23.0732C147.784 22.4332 147.588 21.9172 147.196 21.5252C146.804 21.1252 146.224 20.8012 145.456 20.5532L142.792 19.6172C141.544 19.1692 140.6 18.6572 139.96 18.0812C139.32 17.5052 139 16.6972 139 15.6572C139 14.4892 139.448 13.5372 140.344 12.8012C141.248 12.0652 142.528 11.6972 144.184 11.6972C145.72 11.6972 146.92 12.0532 147.784 12.7652C148.648 13.4692 149.144 14.4172 149.272 15.6092H147.424C147.304 14.9132 146.976 14.3732 146.44 13.9892C145.912 13.5972 145.16 13.4012 144.184 13.4012C143.192 13.4012 142.42 13.6212 141.868 14.0612C141.316 14.5012 141.04 15.0572 141.04 15.7292C141.04 16.2812 141.212 16.7212 141.556 17.0492C141.908 17.3692 142.456 17.6572 143.2 17.9132L146.32 18.9932C147.4 19.3532 148.252 19.8572 148.876 20.5052C149.508 21.1532 149.824 21.9932 149.824 23.0252C149.824 23.8252 149.608 24.5492 149.176 25.1972C148.752 25.8452 148.124 26.3612 147.292 26.7452C146.46 27.1292 145.44 27.3212 144.232 27.3212ZM151.684 26.2892V24.3452C152.252 24.7132 152.82 24.9972 153.388 25.1972C153.956 25.3972 154.508 25.4972 155.044 25.4972C155.884 25.4972 156.48 25.2492 156.832 24.7532C157.192 24.2572 157.372 23.5612 157.372 22.6652V11.9612H159.244V22.6652C159.244 23.7612 159.076 24.6532 158.74 25.3412C158.412 26.0212 157.94 26.5212 157.324 26.8412C156.716 27.1612 155.996 27.3212 155.164 27.3212C154.516 27.3212 153.904 27.2252 153.328 27.0332C152.76 26.8332 152.212 26.5852 151.684 26.2892ZM163.596 27.0332V11.9612H165.468V27.0332H163.596ZM181.25 27.3212C179.922 27.3212 178.778 26.9892 177.818 26.3252C176.858 25.6532 176.118 24.7252 175.598 23.5412C175.078 22.3492 174.818 20.9692 174.818 19.4012C174.818 17.7292 175.098 16.3212 175.658 15.1772C176.226 14.0332 176.994 13.1692 177.962 12.5852C178.938 11.9932 180.034 11.6972 181.25 11.6972C182.858 11.6972 184.15 12.1012 185.126 12.9092C186.11 13.7092 186.786 14.7532 187.154 16.0412L185.138 16.4492C184.826 15.5132 184.326 14.7692 183.638 14.2172C182.958 13.6572 182.162 13.3772 181.25 13.3772C180.458 13.3772 179.726 13.6052 179.054 14.0612C178.39 14.5092 177.854 15.1812 177.446 16.0772C177.038 16.9732 176.834 18.0812 176.834 19.4012C176.834 20.6012 176.994 21.6692 177.314 22.6052C177.642 23.5412 178.13 24.2772 178.778 24.8132C179.434 25.3492 180.258 25.6172 181.25 25.6172C182.442 25.6172 183.386 25.2972 184.082 24.6572C184.786 24.0172 185.138 23.1772 185.138 22.1372H187.178C187.178 23.2172 186.93 24.1452 186.434 24.9212C185.938 25.6892 185.242 26.2812 184.346 26.6972C183.458 27.1132 182.426 27.3212 181.25 27.3212ZM194.889 27.3212C193.857 27.3212 192.937 27.0932 192.129 26.6372C191.329 26.1812 190.697 25.5052 190.233 24.6092C189.769 23.7132 189.537 22.6092 189.537 21.2972C189.537 19.9772 189.769 18.8732 190.233 17.9852C190.697 17.0892 191.329 16.4132 192.129 15.9572C192.937 15.5012 193.857 15.2732 194.889 15.2732C195.913 15.2732 196.825 15.5012 197.625 15.9572C198.433 16.4132 199.065 17.0892 199.521 17.9852C199.985 18.8732 200.217 19.9772 200.217 21.2972C200.217 22.6092 199.985 23.7132 199.521 24.6092C199.065 25.5052 198.433 26.1812 197.625 26.6372C196.825 27.0932 195.913 27.3212 194.889 27.3212ZM194.841 25.6892C195.585 25.6892 196.217 25.5132 196.737 25.1612C197.257 24.8012 197.649 24.2932 197.913 23.6372C198.185 22.9812 198.321 22.2012 198.321 21.2972C198.321 19.9292 198.037 18.8532 197.469 18.0692C196.901 17.2772 196.057 16.8812 194.937 16.8812C194.185 16.8812 193.549 17.0612 193.029 17.4212C192.517 17.7732 192.125 18.2812 191.853 18.9452C191.589 19.6012 191.457 20.3852 191.457 21.2972C191.457 22.6492 191.741 23.7212 192.309 24.5132C192.885 25.2972 193.729 25.6892 194.841 25.6892ZM207.966 27.3212C207.038 27.3212 206.186 27.0732 205.41 26.5772C204.634 26.0732 204.014 25.3692 203.55 24.4652C203.086 23.5532 202.854 22.4812 202.854 21.2492C202.854 20.0252 203.082 18.9652 203.538 18.0692C203.994 17.1732 204.598 16.4852 205.35 16.0052C206.11 15.5172 206.942 15.2732 207.846 15.2732C208.686 15.2732 209.422 15.4772 210.054 15.8852C210.694 16.2932 211.19 16.8812 211.542 17.6492C211.894 18.4172 212.07 19.3452 212.07 20.4332H211.35C211.35 19.6732 211.198 19.0332 210.894 18.5132C210.598 17.9932 210.21 17.6012 209.73 17.3372C209.25 17.0652 208.734 16.9292 208.182 16.9292C207.558 16.9292 206.986 17.1052 206.466 17.4572C205.954 17.8012 205.542 18.2972 205.23 18.9452C204.926 19.5852 204.774 20.3532 204.774 21.2492C204.774 22.1612 204.926 22.9452 205.23 23.6012C205.542 24.2572 205.954 24.7612 206.466 25.1132C206.986 25.4652 207.558 25.6412 208.182 25.6412C208.702 25.6412 209.202 25.5052 209.682 25.2332C210.17 24.9612 210.57 24.5652 210.882 24.0452C211.194 23.5172 211.35 22.8812 211.35 22.1372H212.07C212.07 23.2492 211.886 24.1932 211.518 24.9692C211.158 25.7372 210.666 26.3212 210.042 26.7212C209.426 27.1212 208.734 27.3212 207.966 27.3212ZM211.662 27.0332L211.35 24.3452V10.6652H213.222V27.0332H211.662ZM219.144 12.8492C218.76 12.8492 218.456 12.7412 218.232 12.5252C218.008 12.3012 217.896 12.0092 217.896 11.6492C217.896 11.2972 218.008 11.0172 218.232 10.8092C218.456 10.6012 218.76 10.4972 219.144 10.4972C219.528 10.4972 219.832 10.6012 220.056 10.8092C220.28 11.0172 220.392 11.2972 220.392 11.6492C220.392 12.0092 220.28 12.3012 220.056 12.5252C219.832 12.7412 219.528 12.8492 219.144 12.8492ZM218.208 27.0332V15.5372H220.08V27.0332H218.208ZM233.397 27.0332V20.2892C233.397 19.1932 233.133 18.3612 232.605 17.7932C232.085 17.2172 231.373 16.9292 230.469 16.9292C229.781 16.9292 229.185 17.1172 228.681 17.4932C228.177 17.8692 227.789 18.4092 227.517 19.1132C227.245 19.8092 227.109 20.6412 227.109 21.6092H226.389C226.389 20.2732 226.565 19.1332 226.917 18.1892C227.269 17.2452 227.781 16.5252 228.453 16.0292C229.133 15.5252 229.957 15.2732 230.925 15.2732C231.829 15.2732 232.601 15.4772 233.241 15.8852C233.889 16.2852 234.385 16.8612 234.729 17.6132C235.073 18.3652 235.245 19.2572 235.245 20.2892V27.0332H233.397ZM225.237 27.0332V15.5612H226.845L227.109 18.2012V27.0332H225.237ZM243.777 32.9372C242.601 32.9372 241.581 32.7692 240.717 32.4332C239.853 32.1052 239.181 31.6612 238.701 31.1012C238.229 30.5492 237.993 29.9372 237.993 29.2652C237.993 28.3772 238.317 27.6972 238.965 27.2252C239.621 26.7612 240.465 26.5292 241.497 26.5292L242.529 27.1772C241.665 27.1772 240.997 27.3572 240.525 27.7172C240.053 28.0772 239.817 28.5692 239.817 29.1932C239.817 29.8172 240.153 30.3452 240.825 30.7772C241.497 31.2092 242.481 31.4252 243.777 31.4252C244.737 31.4252 245.577 31.2852 246.297 31.0052C247.025 30.7332 247.589 30.3732 247.989 29.9252C248.397 29.4852 248.601 29.0092 248.601 28.4972C248.601 28.1372 248.469 27.8252 248.205 27.5612C247.941 27.3052 247.537 27.1772 246.993 27.1772H242.529C241.753 27.1772 241.081 27.0612 240.513 26.8292C239.953 26.5892 239.521 26.2772 239.217 25.8932C238.913 25.5092 238.761 25.0892 238.761 24.6332C238.761 24.1532 238.897 23.7452 239.169 23.4092C239.441 23.0732 239.793 22.8172 240.225 22.6412C240.665 22.4652 241.137 22.3772 241.641 22.3772L242.001 23.0732C241.761 23.0732 241.517 23.1292 241.269 23.2412C241.029 23.3452 240.825 23.5052 240.657 23.7212C240.497 23.9292 240.417 24.1932 240.417 24.5132C240.417 24.8812 240.569 25.1892 240.873 25.4372C241.177 25.6852 241.729 25.8092 242.529 25.8092H246.993C248.073 25.8092 248.921 26.0372 249.537 26.4932C250.161 26.9492 250.473 27.5852 250.473 28.4012C250.473 29.1532 250.205 29.8732 249.669 30.5612C249.133 31.2572 248.365 31.8252 247.365 32.2652C246.365 32.7132 245.169 32.9372 243.777 32.9372ZM244.113 23.6732C243.233 23.6732 242.437 23.4972 241.725 23.1452C241.021 22.7932 240.461 22.3012 240.045 21.6692C239.637 21.0372 239.433 20.3052 239.433 19.4732C239.433 18.6332 239.637 17.8972 240.045 17.2652C240.461 16.6332 241.021 16.1452 241.725 15.8012C242.437 15.4492 243.233 15.2732 244.113 15.2732C244.969 15.2732 245.745 15.4492 246.441 15.8012C247.145 16.1452 247.705 16.6332 248.121 17.2652C248.537 17.8972 248.745 18.6332 248.745 19.4732C248.745 20.3052 248.537 21.0372 248.121 21.6692C247.705 22.3012 247.145 22.7932 246.441 23.1452C245.745 23.4972 244.969 23.6732 244.113 23.6732ZM244.113 22.3292C244.993 22.3292 245.677 22.0572 246.165 21.5132C246.653 20.9692 246.897 20.2892 246.897 19.4732C246.897 18.6332 246.653 17.9532 246.165 17.4332C245.677 16.9052 244.993 16.6412 244.113 16.6412C243.241 16.6412 242.553 16.9052 242.049 17.4332C241.553 17.9532 241.305 18.6332 241.305 19.4732C241.305 20.2892 241.553 20.9692 242.049 21.5132C242.553 22.0572 243.241 22.3292 244.113 22.3292ZM247.881 17.0972L246.993 16.7372C246.993 16.0652 247.125 15.4772 247.389 14.9732C247.653 14.4612 248.029 14.0652 248.517 13.7852C249.005 13.4972 249.585 13.3532 250.257 13.3532L250.113 15.2012C249.393 15.2012 248.841 15.3572 248.457 15.6692C248.073 15.9732 247.881 16.4492 247.881 17.0972ZM274.131 27.3212C273.523 27.3212 272.951 27.1932 272.415 26.9372C271.887 26.6732 271.315 26.2652 270.699 25.7132L262.827 18.7772C262.251 18.2732 261.799 17.7212 261.471 17.1212C261.143 16.5212 260.979 15.8972 260.979 15.2492C260.979 14.5692 261.167 13.9652 261.543 13.4372C261.919 12.9012 262.455 12.4812 263.151 12.1772C263.847 11.8732 264.675 11.7212 265.635 11.7212C266.531 11.7212 267.311 11.8772 267.975 12.1892C268.647 12.4932 269.167 12.9092 269.535 13.4372C269.911 13.9572 270.099 14.5452 270.099 15.2012C270.099 15.8252 269.951 16.4012 269.655 16.9292C269.359 17.4572 268.891 17.9492 268.251 18.4052C267.611 18.8612 266.771 19.2972 265.731 19.7132L264.699 18.7292C265.595 18.3372 266.283 17.9612 266.763 17.6012C267.243 17.2332 267.575 16.8652 267.759 16.4972C267.943 16.1212 268.035 15.7292 268.035 15.3212C268.035 14.7452 267.815 14.2652 267.375 13.8812C266.935 13.4972 266.355 13.3052 265.635 13.3052C264.771 13.3052 264.119 13.5252 263.679 13.9652C263.239 14.4052 263.019 14.9212 263.019 15.5132C263.019 15.9452 263.123 16.3612 263.331 16.7612C263.539 17.1532 263.883 17.5612 264.363 17.9852L272.187 24.8732C272.515 25.1452 272.803 25.3452 273.051 25.4732C273.307 25.6012 273.619 25.6652 273.987 25.6652C274.395 25.6652 274.751 25.5132 275.055 25.2092C275.367 24.9052 275.547 24.4012 275.595 23.6972H277.371C277.315 24.8332 277.015 25.7212 276.471 26.3612C275.935 27.0012 275.155 27.3212 274.131 27.3212ZM264.579 27.3212C263.731 27.3212 262.947 27.2092 262.227 26.9852C261.515 26.7532 260.891 26.4332 260.355 26.0252C259.827 25.6172 259.415 25.1452 259.119 24.6092C258.823 24.0652 258.675 23.4812 258.675 22.8572C258.675 21.6332 259.159 20.7132 260.127 20.0972C261.103 19.4812 262.515 19.0972 264.363 18.9452L264.819 20.0492C263.419 20.1932 262.383 20.4892 261.711 20.9372C261.047 21.3772 260.715 21.9932 260.715 22.7852C260.715 23.3052 260.863 23.7812 261.159 24.2132C261.463 24.6452 261.903 24.9932 262.479 25.2572C263.055 25.5132 263.763 25.6412 264.603 25.6412C265.579 25.6412 266.471 25.4412 267.279 25.0412C268.095 24.6332 268.835 24.0772 269.499 23.3732C270.163 22.6612 270.751 21.8412 271.263 20.9132C271.783 19.9772 272.227 18.9772 272.595 17.9132L273.915 18.6332C273.523 19.8492 273.035 20.9852 272.451 22.0412C271.875 23.0892 271.199 24.0092 270.423 24.8012C269.655 25.5932 268.783 26.2132 267.807 26.6612C266.839 27.1012 265.763 27.3212 264.579 27.3212ZM284.316 13.5692V11.9612H296.052V13.5692H290.688L291.108 13.1372V27.0332H289.236V13.1372L289.656 13.5692H284.316ZM300.799 27.3212C299.807 27.3212 298.919 27.0692 298.135 26.5652C297.359 26.0532 296.743 25.3452 296.287 24.4412C295.839 23.5372 295.615 22.4972 295.615 21.3212C295.615 20.0652 295.839 18.9852 296.287 18.0812C296.735 17.1772 297.347 16.4852 298.123 16.0052C298.907 15.5172 299.799 15.2732 300.799 15.2732C301.671 15.2732 302.415 15.4492 303.031 15.8012C303.647 16.1532 304.143 16.6292 304.519 17.2292C304.895 17.8292 305.155 18.5092 305.299 19.2692C305.451 20.0212 305.495 20.8012 305.431 21.6092H297.127V20.4572H304.195L303.643 20.8172C303.667 20.3452 303.639 19.8732 303.559 19.4012C303.487 18.9292 303.347 18.4972 303.139 18.1052C302.931 17.7052 302.639 17.3852 302.263 17.1452C301.887 16.9052 301.407 16.7852 300.823 16.7852C300.087 16.7852 299.471 16.9732 298.975 17.3492C298.479 17.7252 298.107 18.2212 297.859 18.8372C297.611 19.4452 297.487 20.1052 297.487 20.8172V21.5852C297.487 22.3852 297.607 23.1012 297.847 23.7332C298.095 24.3652 298.463 24.8652 298.951 25.2332C299.439 25.6012 300.055 25.7852 300.799 25.7852C301.543 25.7852 302.155 25.6052 302.635 25.2452C303.115 24.8852 303.407 24.3532 303.511 23.6492H305.455C305.335 24.4092 305.063 25.0652 304.639 25.6172C304.215 26.1612 303.675 26.5812 303.019 26.8772C302.363 27.1732 301.623 27.3212 300.799 27.3212ZM313.175 27.3212C312.255 27.3212 311.395 27.0732 310.595 26.5772C309.803 26.0812 309.163 25.3812 308.675 24.4772C308.187 23.5732 307.943 22.5052 307.943 21.2732C307.943 20.0092 308.187 18.9292 308.675 18.0332C309.163 17.1372 309.803 16.4532 310.595 15.9812C311.395 15.5092 312.255 15.2732 313.175 15.2732C313.823 15.2732 314.403 15.3732 314.915 15.5732C315.435 15.7652 315.887 16.0332 316.271 16.3772C316.655 16.7212 316.971 17.1132 317.219 17.5532C317.475 17.9852 317.663 18.4412 317.783 18.9212L315.863 19.0892C315.663 18.4252 315.327 17.9012 314.855 17.5172C314.391 17.1252 313.823 16.9292 313.151 16.9292C312.583 16.9292 312.047 17.0932 311.543 17.4212C311.047 17.7412 310.643 18.2252 310.331 18.8732C310.019 19.5132 309.863 20.3132 309.863 21.2732C309.863 22.1612 310.003 22.9332 310.283 23.5892C310.571 24.2372 310.963 24.7412 311.459 25.1012C311.955 25.4612 312.519 25.6412 313.151 25.6412C314.039 25.6412 314.711 25.4252 315.167 24.9932C315.631 24.5532 315.863 23.9452 315.863 23.1692H317.783C317.783 23.9692 317.595 24.6812 317.219 25.3052C316.843 25.9292 316.307 26.4212 315.611 26.7812C314.923 27.1412 314.111 27.3212 313.175 27.3212ZM329.678 27.0332V20.2892C329.678 19.1932 329.414 18.3612 328.886 17.7932C328.366 17.2172 327.654 16.9292 326.75 16.9292C326.062 16.9292 325.466 17.1172 324.962 17.4932C324.458 17.8692 324.07 18.4092 323.798 19.1132C323.526 19.8092 323.39 20.6412 323.39 21.6092H322.67C322.67 20.2732 322.846 19.1332 323.198 18.1892C323.55 17.2452 324.062 16.5252 324.734 16.0292C325.414 15.5252 326.238 15.2732 327.206 15.2732C328.11 15.2732 328.882 15.4772 329.522 15.8852C330.17 16.2852 330.666 16.8612 331.01 17.6132C331.354 18.3652 331.526 19.2572 331.526 20.2892V27.0332H329.678ZM321.518 27.0332V10.6652H323.39V27.0332H321.518ZM344.162 27.0332V20.2892C344.162 19.1932 343.898 18.3612 343.37 17.7932C342.85 17.2172 342.138 16.9292 341.234 16.9292C340.546 16.9292 339.95 17.1172 339.446 17.4932C338.942 17.8692 338.554 18.4092 338.282 19.1132C338.01 19.8092 337.874 20.6412 337.874 21.6092H337.154C337.154 20.2732 337.33 19.1332 337.682 18.1892C338.034 17.2452 338.546 16.5252 339.218 16.0292C339.898 15.5252 340.722 15.2732 341.69 15.2732C342.594 15.2732 343.366 15.4772 344.006 15.8852C344.654 16.2852 345.15 16.8612 345.494 17.6132C345.838 18.3652 346.01 19.2572 346.01 20.2892V27.0332H344.162ZM336.002 27.0332V15.5612H337.61L337.874 18.2012V27.0332H336.002ZM354.639 27.3212C353.607 27.3212 352.687 27.0932 351.879 26.6372C351.079 26.1812 350.447 25.5052 349.983 24.6092C349.519 23.7132 349.287 22.6092 349.287 21.2972C349.287 19.9772 349.519 18.8732 349.983 17.9852C350.447 17.0892 351.079 16.4132 351.879 15.9572C352.687 15.5012 353.607 15.2732 354.639 15.2732C355.663 15.2732 356.575 15.5012 357.375 15.9572C358.183 16.4132 358.815 17.0892 359.271 17.9852C359.735 18.8732 359.967 19.9772 359.967 21.2972C359.967 22.6092 359.735 23.7132 359.271 24.6092C358.815 25.5052 358.183 26.1812 357.375 26.6372C356.575 27.0932 355.663 27.3212 354.639 27.3212ZM354.591 25.6892C355.335 25.6892 355.967 25.5132 356.487 25.1612C357.007 24.8012 357.399 24.2932 357.663 23.6372C357.935 22.9812 358.071 22.2012 358.071 21.2972C358.071 19.9292 357.787 18.8532 357.219 18.0692C356.651 17.2772 355.807 16.8812 354.687 16.8812C353.935 16.8812 353.299 17.0612 352.779 17.4212C352.267 17.7732 351.875 18.2812 351.603 18.9452C351.339 19.6012 351.207 20.3852 351.207 21.2972C351.207 22.6492 351.491 23.7212 352.059 24.5132C352.635 25.2972 353.479 25.6892 354.591 25.6892ZM363.612 27.0332V10.6652H365.484V27.0332H363.612ZM374.49 27.3212C373.458 27.3212 372.538 27.0932 371.73 26.6372C370.93 26.1812 370.298 25.5052 369.834 24.6092C369.37 23.7132 369.138 22.6092 369.138 21.2972C369.138 19.9772 369.37 18.8732 369.834 17.9852C370.298 17.0892 370.93 16.4132 371.73 15.9572C372.538 15.5012 373.458 15.2732 374.49 15.2732C375.514 15.2732 376.426 15.5012 377.226 15.9572C378.034 16.4132 378.666 17.0892 379.122 17.9852C379.586 18.8732 379.818 19.9772 379.818 21.2972C379.818 22.6092 379.586 23.7132 379.122 24.6092C378.666 25.5052 378.034 26.1812 377.226 26.6372C376.426 27.0932 375.514 27.3212 374.49 27.3212ZM374.442 25.6892C375.186 25.6892 375.818 25.5132 376.338 25.1612C376.858 24.8012 377.25 24.2932 377.514 23.6372C377.786 22.9812 377.922 22.2012 377.922 21.2972C377.922 19.9292 377.638 18.8532 377.07 18.0692C376.502 17.2772 375.658 16.8812 374.538 16.8812C373.786 16.8812 373.15 17.0612 372.63 17.4212C372.118 17.7732 371.726 18.2812 371.454 18.9452C371.19 19.6012 371.058 20.3852 371.058 21.2972C371.058 22.6492 371.342 23.7212 371.91 24.5132C372.486 25.2972 373.33 25.6892 374.442 25.6892ZM387.519 32.9372C386.343 32.9372 385.323 32.7692 384.459 32.4332C383.595 32.1052 382.923 31.6612 382.443 31.1012C381.971 30.5492 381.735 29.9372 381.735 29.2652C381.735 28.3772 382.059 27.6972 382.707 27.2252C383.363 26.7612 384.207 26.5292 385.239 26.5292L386.271 27.1772C385.407 27.1772 384.739 27.3572 384.267 27.7172C383.795 28.0772 383.559 28.5692 383.559 29.1932C383.559 29.8172 383.895 30.3452 384.567 30.7772C385.239 31.2092 386.223 31.4252 387.519 31.4252C388.479 31.4252 389.319 31.2852 390.039 31.0052C390.767 30.7332 391.331 30.3732 391.731 29.9252C392.139 29.4852 392.343 29.0092 392.343 28.4972C392.343 28.1372 392.211 27.8252 391.947 27.5612C391.683 27.3052 391.279 27.1772 390.735 27.1772H386.271C385.495 27.1772 384.823 27.0612 384.255 26.8292C383.695 26.5892 383.263 26.2772 382.959 25.8932C382.655 25.5092 382.503 25.0892 382.503 24.6332C382.503 24.1532 382.639 23.7452 382.911 23.4092C383.183 23.0732 383.535 22.8172 383.967 22.6412C384.407 22.4652 384.879 22.3772 385.383 22.3772L385.743 23.0732C385.503 23.0732 385.259 23.1292 385.011 23.2412C384.771 23.3452 384.567 23.5052 384.399 23.7212C384.239 23.9292 384.159 24.1932 384.159 24.5132C384.159 24.8812 384.311 25.1892 384.615 25.4372C384.919 25.6852 385.471 25.8092 386.271 25.8092H390.735C391.815 25.8092 392.663 26.0372 393.279 26.4932C393.903 26.9492 394.215 27.5852 394.215 28.4012C394.215 29.1532 393.947 29.8732 393.411 30.5612C392.875 31.2572 392.107 31.8252 391.107 32.2652C390.107 32.7132 388.911 32.9372 387.519 32.9372ZM387.855 23.6732C386.975 23.6732 386.179 23.4972 385.467 23.1452C384.763 22.7932 384.203 22.3012 383.787 21.6692C383.379 21.0372 383.175 20.3052 383.175 19.4732C383.175 18.6332 383.379 17.8972 383.787 17.2652C384.203 16.6332 384.763 16.1452 385.467 15.8012C386.179 15.4492 386.975 15.2732 387.855 15.2732C388.711 15.2732 389.487 15.4492 390.183 15.8012C390.887 16.1452 391.447 16.6332 391.863 17.2652C392.279 17.8972 392.487 18.6332 392.487 19.4732C392.487 20.3052 392.279 21.0372 391.863 21.6692C391.447 22.3012 390.887 22.7932 390.183 23.1452C389.487 23.4972 388.711 23.6732 387.855 23.6732ZM387.855 22.3292C388.735 22.3292 389.419 22.0572 389.907 21.5132C390.395 20.9692 390.639 20.2892 390.639 19.4732C390.639 18.6332 390.395 17.9532 389.907 17.4332C389.419 16.9052 388.735 16.6412 387.855 16.6412C386.983 16.6412 386.295 16.9052 385.791 17.4332C385.295 17.9532 385.047 18.6332 385.047 19.4732C385.047 20.2892 385.295 20.9692 385.791 21.5132C386.295 22.0572 386.983 22.3292 387.855 22.3292ZM391.623 17.0972L390.735 16.7372C390.735 16.0652 390.867 15.4772 391.131 14.9732C391.395 14.4612 391.771 14.0652 392.259 13.7852C392.747 13.4972 393.327 13.3532 393.999 13.3532L393.855 15.2012C393.135 15.2012 392.583 15.3572 392.199 15.6692C391.815 15.9732 391.623 16.4492 391.623 17.0972ZM395.489 15.5612H397.577L401.321 25.4012H400.889L403.793 15.5612H405.713L401.393 29.3372C401.033 30.4892 400.553 31.3772 399.953 32.0012C399.353 32.6252 398.585 32.9372 397.649 32.9372C397.145 32.9372 396.665 32.8652 396.209 32.7212C395.761 32.5772 395.297 32.3692 394.817 32.0972V30.3692C395.241 30.7052 395.649 30.9452 396.041 31.0892C396.441 31.2332 396.857 31.3052 397.289 31.3052C397.769 31.3052 398.169 31.1532 398.489 30.8492C398.817 30.5452 399.089 30.1532 399.305 29.6732C399.521 29.2012 399.705 28.7052 399.857 28.1852L400.193 27.0332L395.489 15.5612ZM419.492 27.3212C418.164 27.3212 417.02 26.9892 416.06 26.3252C415.1 25.6532 414.36 24.7252 413.84 23.5412C413.32 22.3492 413.06 20.9692 413.06 19.4012C413.06 17.7292 413.34 16.3212 413.9 15.1772C414.468 14.0332 415.236 13.1692 416.204 12.5852C417.18 11.9932 418.276 11.6972 419.492 11.6972C421.1 11.6972 422.392 12.1012 423.368 12.9092C424.352 13.7092 425.028 14.7532 425.396 16.0412L423.38 16.4492C423.068 15.5132 422.568 14.7692 421.88 14.2172C421.2 13.6572 420.404 13.3772 419.492 13.3772C418.7 13.3772 417.968 13.6052 417.296 14.0612C416.632 14.5092 416.096 15.1812 415.688 16.0772C415.28 16.9732 415.076 18.0812 415.076 19.4012C415.076 20.6012 415.236 21.6692 415.556 22.6052C415.884 23.5412 416.372 24.2772 417.02 24.8132C417.676 25.3492 418.5 25.6172 419.492 25.6172C420.684 25.6172 421.628 25.2972 422.324 24.6572C423.028 24.0172 423.38 23.1772 423.38 22.1372H425.42C425.42 23.2172 425.172 24.1452 424.676 24.9212C424.18 25.6892 423.484 26.2812 422.588 26.6972C421.7 27.1132 420.668 27.3212 419.492 27.3212ZM427.179 27.0332L432.363 11.9612H434.643L439.707 27.0332H437.739L436.467 23.1692H430.467L429.147 27.0332H427.179ZM430.947 21.7052H435.987L433.467 14.2412L430.947 21.7052ZM447.584 27.3212C446.576 27.3212 445.652 27.1412 444.812 26.7812C443.972 26.4132 443.296 25.8732 442.784 25.1612C442.272 24.4492 442.008 23.5692 441.992 22.5212H443.816C443.816 23.2252 443.988 23.8052 444.332 24.2612C444.676 24.7092 445.132 25.0452 445.7 25.2692C446.268 25.4852 446.888 25.5932 447.56 25.5932C448.288 25.5932 448.92 25.4772 449.456 25.2452C449.992 25.0132 450.404 24.7092 450.692 24.3332C450.988 23.9492 451.136 23.5292 451.136 23.0732C451.136 22.4332 450.94 21.9172 450.548 21.5252C450.156 21.1252 449.576 20.8012 448.808 20.5532L446.144 19.6172C444.896 19.1692 443.952 18.6572 443.312 18.0812C442.672 17.5052 442.352 16.6972 442.352 15.6572C442.352 14.4892 442.8 13.5372 443.696 12.8012C444.6 12.0652 445.88 11.6972 447.536 11.6972C449.072 11.6972 450.272 12.0532 451.136 12.7652C452 13.4692 452.496 14.4172 452.624 15.6092H450.776C450.656 14.9132 450.328 14.3732 449.792 13.9892C449.264 13.5972 448.512 13.4012 447.536 13.4012C446.544 13.4012 445.772 13.6212 445.22 14.0612C444.668 14.5012 444.392 15.0572 444.392 15.7292C444.392 16.2812 444.564 16.7212 444.908 17.0492C445.26 17.3692 445.808 17.6572 446.552 17.9132L449.672 18.9932C450.752 19.3532 451.604 19.8572 452.228 20.5052C452.86 21.1532 453.176 21.9932 453.176 23.0252C453.176 23.8252 452.96 24.5492 452.528 25.1972C452.104 25.8452 451.476 26.3612 450.644 26.7452C449.812 27.1292 448.792 27.3212 447.584 27.3212Z" fill="white"/>
</svg>
