<svg id="visual" viewBox="0 0 1000 150" width="1000" height="150" xmlns="http://www.w3.org/2000/svg" xmlns:xlink="http://www.w3.org/1999/xlink" version="1.1"><rect x="0" y="0" width="1000" height="150" fill="#ffffff"></rect><path d="M0 42L23.8 39.5C47.7 37 95.3 32 143 33.2C190.7 34.3 238.3 41.7 286 43.5C333.7 45.3 381.3 41.7 428.8 40C476.3 38.3 523.7 38.7 571.2 44C618.7 49.3 666.3 59.7 714 64.7C761.7 69.7 809.3 69.3 857 64.8C904.7 60.3 952.3 51.7 976.2 47.3L1000 43L1000 151L976.2 151C952.3 151 904.7 151 857 151C809.3 151 761.7 151 714 151C666.3 151 618.7 151 571.2 151C523.7 151 476.3 151 428.8 151C381.3 151 333.7 151 286 151C238.3 151 190.7 151 143 151C95.3 151 47.7 151 23.8 151L0 151Z" fill="#dcc3ae"></path><path d="M0 89L23.8 83.7C47.7 78.3 95.3 67.7 143 66.3C190.7 65 238.3 73 286 76.7C333.7 80.3 381.3 79.7 428.8 77.2C476.3 74.7 523.7 70.3 571.2 65.2C618.7 60 666.3 54 714 53.7C761.7 53.3 809.3 58.7 857 63.7C904.7 68.7 952.3 73.3 976.2 75.7L1000 78L1000 151L976.2 151C952.3 151 904.7 151 857 151C809.3 151 761.7 151 714 151C666.3 151 618.7 151 571.2 151C523.7 151 476.3 151 428.8 151C381.3 151 333.7 151 286 151C238.3 151 190.7 151 143 151C95.3 151 47.7 151 23.8 151L0 151Z" fill="#d2b094"></path><path d="M0 71L23.8 72.8C47.7 74.7 95.3 78.3 143 78.8C190.7 79.3 238.3 76.7 286 78.5C333.7 80.3 381.3 86.7 428.8 87.8C476.3 89 523.7 85 571.2 83.3C618.7 81.7 666.3 82.3 714 81.8C761.7 81.3 809.3 79.7 857 83.3C904.7 87 952.3 96 976.2 100.5L1000 105L1000 151L976.2 151C952.3 151 904.7 151 857 151C809.3 151 761.7 151 714 151C666.3 151 618.7 151 571.2 151C523.7 151 476.3 151 428.8 151C381.3 151 333.7 151 286 151C238.3 151 190.7 151 143 151C95.3 151 47.7 151 23.8 151L0 151Z" fill="#c89e7b"></path><path d="M0 102L23.8 102C47.7 102 95.3 102 143 104.3C190.7 106.7 238.3 111.3 286 113C333.7 114.7 381.3 113.3 428.8 109.5C476.3 105.7 523.7 99.3 571.2 99.3C618.7 99.3 666.3 105.7 714 106.7C761.7 107.7 809.3 103.3 857 102C904.7 100.7 952.3 102.3 976.2 103.2L1000 104L1000 151L976.2 151C952.3 151 904.7 151 857 151C809.3 151 761.7 151 714 151C666.3 151 618.7 151 571.2 151C523.7 151 476.3 151 428.8 151C381.3 151 333.7 151 286 151C238.3 151 190.7 151 143 151C95.3 151 47.7 151 23.8 151L0 151Z" fill="#be8c63"></path><path d="M0 127L23.8 125.2C47.7 123.3 95.3 119.7 143 120.7C190.7 121.7 238.3 127.3 286 128.5C333.7 129.7 381.3 126.3 428.8 125.5C476.3 124.7 523.7 126.3 571.2 128.3C618.7 130.3 666.3 132.7 714 130.3C761.7 128 809.3 121 857 120.5C904.7 120 952.3 126 976.2 129L1000 132L1000 151L976.2 151C952.3 151 904.7 151 857 151C809.3 151 761.7 151 714 151C666.3 151 618.7 151 571.2 151C523.7 151 476.3 151 428.8 151C381.3 151 333.7 151 286 151C238.3 151 190.7 151 143 151C95.3 151 47.7 151 23.8 151L0 151Z" fill="#b37a4c"></path></svg>