<svg id="visual" viewBox="0 0 1000 150" width="1000" height="150" xmlns="http://www.w3.org/2000/svg" xmlns:xlink="http://www.w3.org/1999/xlink" version="1.1"><rect x="0" y="0" width="1000" height="150" fill="#f8f9fa"></rect><path d="M0 91L23.8 92.7C47.7 94.3 95.3 97.7 143 100C190.7 102.3 238.3 103.7 286 106.3C333.7 109 381.3 113 428.8 115C476.3 117 523.7 117 571.2 113.5C618.7 110 666.3 103 714 98.2C761.7 93.3 809.3 90.7 857 94.8C904.7 99 952.3 110 976.2 115.5L1000 121L1000 0L976.2 0C952.3 0 904.7 0 857 0C809.3 0 761.7 0 714 0C666.3 0 618.7 0 571.2 0C523.7 0 476.3 0 428.8 0C381.3 0 333.7 0 286 0C238.3 0 190.7 0 143 0C95.3 0 47.7 0 23.8 0L0 0Z" fill="#c8d7d3"></path><path d="M0 86L23.8 84.3C47.7 82.7 95.3 79.3 143 81C190.7 82.7 238.3 89.3 286 86.7C333.7 84 381.3 72 428.8 70.8C476.3 69.7 523.7 79.3 571.2 79.2C618.7 79 666.3 69 714 70.7C761.7 72.3 809.3 85.7 857 85.7C904.7 85.7 952.3 72.3 976.2 65.7L1000 59L1000 0L976.2 0C952.3 0 904.7 0 857 0C809.3 0 761.7 0 714 0C666.3 0 618.7 0 571.2 0C523.7 0 476.3 0 428.8 0C381.3 0 333.7 0 286 0C238.3 0 190.7 0 143 0C95.3 0 47.7 0 23.8 0L0 0Z" fill="#9db8b0"></path><path d="M0 74L23.8 70.3C47.7 66.7 95.3 59.3 143 60C190.7 60.7 238.3 69.3 286 71.8C333.7 74.3 381.3 70.7 428.8 66.5C476.3 62.3 523.7 57.7 571.2 58.5C618.7 59.3 666.3 65.7 714 67.8C761.7 70 809.3 68 857 69C904.7 70 952.3 74 976.2 76L1000 78L1000 0L976.2 0C952.3 0 904.7 0 857 0C809.3 0 761.7 0 714 0C666.3 0 618.7 0 571.2 0C523.7 0 476.3 0 428.8 0C381.3 0 333.7 0 286 0C238.3 0 190.7 0 143 0C95.3 0 47.7 0 23.8 0L0 0Z" fill="#73998d"></path><path d="M0 27L23.8 31.5C47.7 36 95.3 45 143 50.2C190.7 55.3 238.3 56.7 286 53.7C333.7 50.7 381.3 43.3 428.8 41.5C476.3 39.7 523.7 43.3 571.2 46.3C618.7 49.3 666.3 51.7 714 52C761.7 52.3 809.3 50.7 857 47.3C904.7 44 952.3 39 976.2 36.5L1000 34L1000 0L976.2 0C952.3 0 904.7 0 857 0C809.3 0 761.7 0 714 0C666.3 0 618.7 0 571.2 0C523.7 0 476.3 0 428.8 0C381.3 0 333.7 0 286 0C238.3 0 190.7 0 143 0C95.3 0 47.7 0 23.8 0L0 0Z" fill="#4b7b6b"></path><path d="M0 25L23.8 25.7C47.7 26.3 95.3 27.7 143 25.8C190.7 24 238.3 19 286 19.7C333.7 20.3 381.3 26.7 428.8 26.7C476.3 26.7 523.7 20.3 571.2 18.3C618.7 16.3 666.3 18.7 714 19.5C761.7 20.3 809.3 19.7 857 21.8C904.7 24 952.3 29 976.2 31.5L1000 34L1000 0L976.2 0C952.3 0 904.7 0 857 0C809.3 0 761.7 0 714 0C666.3 0 618.7 0 571.2 0C523.7 0 476.3 0 428.8 0C381.3 0 333.7 0 286 0C238.3 0 190.7 0 143 0C95.3 0 47.7 0 23.8 0L0 0Z" fill="#215e4a"></path></svg>