<svg width="1448" height="86" viewBox="0 0 1448 86" fill="none" xmlns="http://www.w3.org/2000/svg">
<path d="M2.5 3C2.5 3 58.933 55.5 132.25 55.5C205.567 55.5 265.183 3 338.5 3C411.817 3 471.433 55.5 544.75 55.5C618.067 55.5 651.683 3 725 3C798.317 3 831.933 55.5 905.25 55.5C978.567 55.5 1038.18 3 1111.5 3C1184.82 3 1244.43 55.5 1317.75 55.5C1391.07 55.5 1446 3 1446 3" stroke="#EFB79D" stroke-width="5"/>
<path d="M2.5 31C2.5 31 58.933 83.5 132.25 83.5C205.567 83.5 265.183 31 338.5 31C411.817 31 471.433 83.5 544.75 83.5C618.067 83.5 651.683 31 725 31C798.317 31 831.933 83.5 905.25 83.5C978.567 83.5 1038.18 31 1111.5 31C1184.82 31 1244.43 83.5 1317.75 83.5C1391.07 83.5 1446 31 1446 31" stroke="#EFB79D" stroke-width="5"/>
</svg>
