<svg width="1451" height="101" viewBox="0 0 1451 101" fill="none" xmlns="http://www.w3.org/2000/svg">
<path d="M3.5 5C3.5 5 59.933 57.5 133.25 57.5C206.567 57.5 266.183 5 339.5 5C412.817 5 472.433 57.5 545.75 57.5C619.067 57.5 652.683 5 726 5C799.317 5 832.933 57.5 906.25 57.5C979.567 57.5 1039.18 5 1112.5 5C1185.82 5 1245.43 57.5 1318.75 57.5C1392.07 57.5 1447 5 1447 5" stroke="#EFB79D" stroke-width="10"/>
<path d="M3.5 43C3.5 43 59.933 95.5 133.25 95.5C206.567 95.5 266.183 43 339.5 43C412.817 43 472.433 95.5 545.75 95.5C619.067 95.5 652.683 43 726 43C799.317 43 832.933 95.5 906.25 95.5C979.567 95.5 1039.18 43 1112.5 43C1185.82 43 1245.43 95.5 1318.75 95.5C1392.07 95.5 1447 43 1447 43" stroke="#EFB79D" stroke-width="10"/>
</svg>
